<?xml version="1.0" standalone="no"?>
<!DOCTYPE svg PUBLIC "-//W3C//DTD SVG 20010904//EN"
 "http://www.w3.org/TR/2001/REC-SVG-20010904/DTD/svg10.dtd">
<svg version="1.0" xmlns="http://www.w3.org/2000/svg"
 width="512.000000pt" height="512.000000pt" viewBox="0 0 512.000000 512.000000"
 preserveAspectRatio="xMidYMid meet">

<g transform="translate(0.000000,512.000000) scale(0.100000,-0.100000)"
fill="#000000" stroke="none">
<path d="M2454 4595 c-94 -20 -169 -61 -244 -131 -211 -199 -216 -519 -11
-725 100 -101 218 -151 355 -152 341 -2 588 318 497 645 -24 90 -73 168 -148
238 -70 66 -146 105 -241 126 -81 17 -128 17 -208 -1z"/>
<path d="M2433 3055 c-226 -61 -383 -264 -383 -495 0 -280 230 -510 510 -510
329 0 577 317 495 633 -71 275 -355 444 -622 372z"/>
<path d="M2490 1529 c-351 -52 -543 -427 -383 -743 36 -71 154 -186 226 -220
63 -29 170 -56 227 -56 57 0 164 27 225 55 71 34 170 126 214 199 116 193 88
442 -70 610 -111 119 -281 179 -439 155z"/>
</g>
</svg>
